<?xml version="1.0" encoding="UTF-8" standalone="no"?>
<svg
   width="270.39774"
   zoomAndPan="magnify"
   viewBox="0 0 202.7983 204.03982"
   height="272.0531"
   preserveAspectRatio="xMidYMid"
   version="1.0"
   id="svg313"
   sodipodi:docname="logo.svg"
   inkscape:version="1.2.1 (9c6d41e410, 2022-07-14)"
   xmlns:inkscape="http://www.inkscape.org/namespaces/inkscape"
   xmlns:sodipodi="http://sodipodi.sourceforge.net/DTD/sodipodi-0.dtd"
   xmlns="http://www.w3.org/2000/svg"
   xmlns:svg="http://www.w3.org/2000/svg">
  <sodipodi:namedview
     id="namedview315"
     pagecolor="#ffffff"
     bordercolor="#000000"
     borderopacity="0.25"
     inkscape:showpageshadow="2"
     inkscape:pageopacity="0.0"
     inkscape:pagecheckerboard="0"
     inkscape:deskcolor="#d1d1d1"
     showgrid="false"
     inkscape:zoom="0.829"
     inkscape:cx="390.83233"
     inkscape:cy="322.07479"
     inkscape:window-width="1920"
     inkscape:window-height="1009"
     inkscape:window-x="-8"
     inkscape:window-y="-8"
     inkscape:window-maximized="1"
     inkscape:current-layer="svg313" />
  <defs
     id="defs25">
    <g
       id="g2" />
    <clipPath
       id="44123c20d9">
      <path
         d="m 198,123.67969 h 35 V 143 h -35 z m 0,0"
         clip-rule="nonzero"
         id="path4" />
    </clipPath>
    <clipPath
       id="b3f2d92666">
      <path
         d="M 119.79688,140 H 145 v 74 h -25.20312 z m 0,0"
         clip-rule="nonzero"
         id="path7" />
    </clipPath>
    <clipPath
       id="2b157a4240">
      <path
         d="m 241,169 h 14.54687 v 58 H 241 Z m 0,0"
         clip-rule="nonzero"
         id="path10" />
    </clipPath>
    <clipPath
       id="1164531a89">
      <path
         d="m 136.08594,230.83984 h 77.3789 v 27.05469 h -77.3789 z m 0,0"
         clip-rule="nonzero"
         id="path13" />
    </clipPath>
    <clipPath
       id="cdedd941e2">
      <path
         d="m 113.8125,116.80859 h 147 v 147 h -147 z m 0,0"
         clip-rule="nonzero"
         id="path16" />
    </clipPath>
    <clipPath
       id="eed2441523">
      <path
         d="m 187.3125,116.80859 c -40.58984,0 -73.5,32.90625 -73.5,73.5 0,40.59375 32.91016,73.5 73.5,73.5 40.59375,0 73.5,-32.90625 73.5,-73.5 0,-40.59375 -32.90625,-73.5 -73.5,-73.5"
         clip-rule="nonzero"
         id="path19" />
    </clipPath>
    <clipPath
       id="53c44c67c9">
      <path
         d="m 147.92187,151.30469 h 78.75 v 78.75 h -78.75 z m 0,0"
         clip-rule="nonzero"
         id="path22" />
    </clipPath>
  </defs>
  <path
     fill="#b5cdc6"
     d="m 137.50879,131.10862 c -3.78515,4.91016 -8.64062,9.125 -14.45312,12.25781 -12.91016,6.95313 -27.687501,7.03125 -40.121101,1.49219 l 0.5586,-1.25 c -3.78907,-1.69922 -7.26953,-3.90625 -10.37891,-6.52734 l -0.91016,1.08203 c -4.26562,-3.58594 -7.9414,-8.01563 -10.75,-13.21484 -6.64453,-12.3125 -7.01562,-26.324221 -2.21093,-38.375001 l 1.1875,0.47265 c 4.64843,-11.82812 14.17187,-20.94531 25.82422,-25.26953 l -0.38282,-1.04687 c 9.23828,-3.38282 19.058601,-3.58204 28.082031,-1.00782 l -0.27734,0.97266 c 6.64844,1.86719 12.58984,5.21484 17.50781,9.62891 l 0.66407,-0.74219 c 3.80078,3.40625 7.08593,7.51172 9.64453,12.2539 4.64062,8.59375 6.21875,18.01172 5.12109,27.019541 l -1.05078,-0.12891 c -0.008,0.0781 -0.0117,0.15625 -0.0234,0.23437 -1.05469,8.11329 -4.26172,15.42188 -8.95312,21.44141 z M 107.60254,57.370339 c -25.371091,-3.29687 -48.613281,14.57813 -51.914061,39.91797 -3.29688,25.343751 14.59375,48.562501 39.96484,51.855471 25.371101,3.29687 48.613281,-14.57422 51.914071,-39.91797 3.30078,-25.343751 -14.59375,-48.558591 -39.96485,-51.855471"
     fill-opacity="1"
     fill-rule="nonzero"
     id="path27" />
  <g
     clip-path="url(#44123c20d9)"
     id="g31"
     transform="translate(-86.061521,-86.492941)">
    <path
       fill="#b5cdc6"
       d="M 232.57422,142.40234 C 223,133.39453 211.17969,127.56641 198.25391,125.47266 l 3.28906,-1.75782 c 11.39453,2.35547 21.8789,7.5586 30.68359,15.23828 l 0.34766,3.44922"
       fill-opacity="1"
       fill-rule="nonzero"
       id="path29" />
  </g>
  <g
     clip-path="url(#b3f2d92666)"
     id="g35"
     transform="translate(-86.061521,-86.492941)">
    <path
       fill="#b5cdc6"
       d="m 123.19141,211.32422 c -2.25391,-6.82422 -3.39453,-13.94531 -3.39453,-21.22656 0,-18.88282 7.8164,-36.7461 21.56249,-49.5625 l 3.35157,0.10937 c -14.36719,12.46484 -22.58985,30.42188 -22.58985,49.45313 0,7.92968 1.40235,15.67187 4.17188,23.02343 l -3.10156,-1.79687"
       fill-opacity="1"
       fill-rule="nonzero"
       id="path33" />
  </g>
  <g
     clip-path="url(#2b157a4240)"
     id="g39"
     transform="translate(-86.061521,-86.492941)">
    <path
       fill="#b5cdc6"
       d="m 241.87891,226.92187 c 7.42578,-10.8789 11.34375,-23.58593 11.34375,-36.82421 0,-7.20313 -1.16407,-14.27344 -3.46094,-21.03907 l 2.82422,1.17578 c 1.96484,6.41407 2.96093,13.08204 2.96093,19.86329 0,12.62109 -3.4375,24.77734 -9.98828,35.41796 l -3.67968,1.40625"
       fill-opacity="1"
       fill-rule="nonzero"
       id="path37" />
  </g>
  <g
     clip-path="url(#1164531a89)"
     id="g43"
     transform="translate(-86.061521,-86.492941)">
    <path
       fill="#b5cdc6"
       d="m 187.67187,257.89453 c -19.93359,0 -38.44921,-8.51172 -51.37109,-23.48828 l 0.16016,-3.44141 c 12.52343,15.65625 31.12109,24.60938 51.21093,24.60938 8.91407,0 17.54297,-1.75391 25.66407,-5.21094 l -1.38672,3.06641 c -7.73438,2.96484 -15.88281,4.46484 -24.27735,4.46484"
       fill-opacity="1"
       fill-rule="nonzero"
       id="path41" />
  </g>
  <path
     fill="#b5cdc6"
     d="m 154.77442,101.43675 c -0.16797,-6.007821 -1.35938,-12.050781 -3.66407,-17.859381 l -3.3164,1.3086 c 2.1289,5.36718 3.23828,10.94921 3.41015,16.500001 1.1875,0.0156 2.37891,0.0352 3.57032,0.0508"
     fill-opacity="1"
     fill-rule="nonzero"
     id="path45" />
  <path
     fill="#b5cdc6"
     d="m 63.586919,72.296119 c 3.75781,-4.71094 8.44922,-8.80469 14,-11.98437 13.14453,-7.52344 28.300781,-8.31641 41.484371,-3.46485 l 1.23438,-3.33984 c -14.14063,-5.20313 -30.394531,-4.35156 -44.488281,3.71484 -5.95313,3.41016 -10.98829,7.80078 -15.01954,12.85157 l 2.78907,2.22265"
     fill-opacity="1"
     fill-rule="nonzero"
     id="path47" />
  <path
     fill="#b5cdc6"
     d="m 135.1416,140.55393 c -0.26562,-0.1914 -0.53125,-0.38281 -0.80468,-0.5625 -2.38282,2.07032 -4.99219,3.94141 -7.83203,5.57032 -7.28516,4.17187 -15.19141,6.26562 -23.03907,6.48437 -0.0703,1.1875 -0.12109,2.37891 -0.16015,3.57031 8.5,-0.19531 17.07422,-2.44531 24.97265,-6.96875 3.1211,-1.78515 5.98047,-3.85937 8.58203,-6.14062 -0.57421,-0.65234 -1.14062,-1.30859 -1.71875,-1.95313"
     fill-opacity="1"
     fill-rule="nonzero"
     id="path49" />
  <path
     fill="#b5cdc6"
     d="m 65.977539,136.33128 c -2.48047,-2.67578 -4.70703,-5.66406 -6.60156,-8.96094 -7.89063,-13.75 -8.38672,-29.710941 -2.74219,-43.296871 l -3.29297,-1.36719 c -6.05078,14.57422 -5.51953,31.687501 2.94141,46.433591 2.05469,3.57813 4.47656,6.8125 7.17187,9.70703 0.83204,-0.84375 1.67579,-1.68359 2.52344,-2.51562"
     fill-opacity="1"
     fill-rule="nonzero"
     id="path51" />
  <path
     fill="#b5cdc6"
     d="m 158.15723,103.42112 h -6.23828 v 0.41797 c 0,13.53516 -5.25391,26.29297 -14.78516,35.92578 l -0.28906,0.29297 4.41016,4.40625 2.9414,2.9375 c -11.41015,11.35156 -26.51172,17.70313 -42.60937,17.91797 v -10.39844 l -0.83203,0.0234 c -13.550791,0 -26.769541,-5.52734 -36.410161,-15.05078 l -3.96875,4.10547 c -10.71484,-10.7461 -16.60938,-24.98828 -16.60938,-40.16016 0,-15.308591 6.00391,-29.675781 16.90235,-40.453121 10.74219,-10.6211 24.98047,-16.47266 40.085941,-16.47266 l 0.83203,0.0273 v -4.58203 c 16.23828,0.21485 31.45703,6.67188 42.89843,18.20703 11.40235,11.4961 17.72266,26.69922 17.82813,42.855471 z m -95.074221,39.05078 1.42188,-1.42187 c 9.76171,9.49609 22.61718,14.72656 36.250001,14.72656 v 2.18359 C 86.086919,157.94848 72.778319,152.0344 63.083009,142.4719 Z M 145.0791,59.983619 c -11.69531,-11.79297 -27.28906,-18.35156 -43.90625,-18.46094 h -0.41796 v 4.5625 c -15.328131,0 -29.769541,5.9336 -40.667971,16.71094 -11.0586,10.9336 -17.15235,25.50781 -17.15235,41.042971 0,15.53125 6.09375,30.10938 17.15235,41.04297 l 0.29297,0.28906 0.77734,-0.77734 c 10.19141,10.05469 24.17969,16.27734 39.597661,16.28906 v 5.47266 l 0.41796,-0.004 c 16.61719,-0.10937 32.21094,-6.66406 43.90625,-18.45703 l 0.28907,-0.29297 -3.98828,-3.98828 c 9.80468,-10.14453 15.85937,-23.92969 15.85937,-39.11328 0,-0.0117 0,-0.0234 0,-0.0352 -0.90625,0.0586 -1.81641,0.0977 -2.72656,0.11328 -0.0234,14.40235 -5.76172,27.48047 -15.0586,37.11719 l -1.4375,-1.44141 c 0.27344,-0.28125 0.53516,-0.57812 0.80469,-0.86328 0.25781,-0.28125 0.52735,-0.55859 0.78125,-0.84375 0.3125,-0.35156 0.60938,-0.70703 0.91016,-1.0625 0.24219,-0.28906 0.49219,-0.57422 0.73047,-0.86718 0.29297,-0.36329 0.57422,-0.73829 0.85937,-1.10938 0.22656,-0.29687 0.45703,-0.58594 0.67969,-0.88281 0.27734,-0.38672 0.54297,-0.77735 0.8125,-1.16797 0.20703,-0.29688 0.41797,-0.58984 0.61719,-0.89063 0.26562,-0.40625 0.51953,-0.82031 0.77343,-1.23046 0.1836,-0.29688 0.375,-0.58594 0.55079,-0.88672 0.26171,-0.4336 0.5,-0.87891 0.74609,-1.32032 0.15625,-0.28125 0.32422,-0.5625 0.47656,-0.84765 0.26172,-0.4961 0.50391,-0.9961 0.7461,-1.4961 0.12109,-0.24609 0.25,-0.48437 0.36328,-0.73046 0.34375,-0.72657 0.66406,-1.46485 0.97265,-2.20704 0.0312,-0.0781 0.0625,-0.15625 0.0937,-0.23437 0.28907,-0.71094 0.56641,-1.42578 0.82422,-2.14844 0.0977,-0.28125 0.1836,-0.5664 0.28125,-0.85156 0.16797,-0.5 0.33985,-1 0.49219,-1.50781 0.10156,-0.33203 0.1875,-0.67188 0.27734,-1.00391 0.13282,-0.46484 0.26953,-0.92578 0.38672,-1.39453 0.0898,-0.35938 0.16406,-0.71875 0.24219,-1.07813 0.10156,-0.45312 0.21484,-0.90234 0.30469,-1.35937 0.0742,-0.37109 0.1289,-0.74609 0.19531,-1.12109 0.082,-0.44922 0.16406,-0.89454 0.23047,-1.34375 0.0586,-0.38282 0.10156,-0.76954 0.14844,-1.15235 0.0586,-0.44922 0.12109,-0.89453 0.16406,-1.34375 0.0391,-0.39062 0.0625,-0.78125 0.0977,-1.17578 0.0312,-0.44922 0.0703,-0.89453 0.0937,-1.34766 0.0234,-0.39062 0.0273,-0.78906 0.0391,-1.18359 0.0117,-0.38281 0.0352,-0.76562 0.0352,-1.14844 h 10.39844 v -0.41406 c 0,-16.531251 -6.41406,-32.105471 -18.06641,-43.855471"
     fill-opacity="1"
     fill-rule="nonzero"
     id="path53" />
  <g
     clip-path="url(#cdedd941e2)"
     id="g59"
     transform="translate(-86.061521,-86.492941)">
    <g
       clip-path="url(#eed2441523)"
       id="g57">
      <path
         stroke-linecap="butt"
         transform="matrix(0.74994,0,0,0.74994,113.81434,116.80921)"
         fill="none"
         stroke-linejoin="miter"
         d="m 98.005362,-8.23772e-4 c -54.12411,0 -98.00781903,43.878500772 -98.00781903,98.007818772 0,54.129315 43.88370903,98.007815 98.00781903,98.007815 54.129318,0 98.007818,-43.8785 98.007818,-98.007815 0,-54.129318 -43.8785,-98.007818772 -98.007818,-98.007818772"
         stroke="#2a6956"
         stroke-width="24"
         stroke-opacity="1"
         stroke-miterlimit="4"
         id="path55" />
    </g>
  </g>
  <g
     fill="#2a6956"
     fill-opacity="1"
     id="g67"
     transform="translate(-86.061521,-86.492941)">
    <g
       transform="translate(113.26654,207.0203)"
       id="g65">
      <g
         id="g63">
        <path
           d="m -13.046875,-5.65625 c 1.011719,-0.195312 1.898437,-0.035156 2.65625,0.484375 0.761719,0.523437 1.246094,1.296875 1.453125,2.328125 0.210938,1.074219 0.0625,1.996094 -0.4375,2.765625 -0.507812,0.757813 -1.269531,1.238281 -2.28125,1.4375 -1.039062,0.207031 -1.9375,0.050781 -2.6875,-0.46875 -0.75,-0.511719 -1.226562,-1.300781 -1.4375,-2.375 -0.207031,-1.03125 -0.0625,-1.929687 0.4375,-2.703125 0.492188,-0.769531 1.257812,-1.257812 2.296875,-1.46875 z m 0,0"
           id="path61" />
      </g>
    </g>
  </g>
  <g
     fill="#2a6956"
     fill-opacity="1"
     id="g73"
     transform="translate(-86.061521,-86.492941)">
    <g
       transform="translate(111.72625,199.2266)"
       id="g71">
      <g
         id="g69" />
    </g>
  </g>
  <g
     fill="#2a6956"
     fill-opacity="1"
     id="g81"
     transform="translate(-86.061521,-86.492941)">
    <g
       transform="translate(110.51258,194.40713)"
       id="g79">
      <g
         id="g77">
        <path
           d="m -8.40625,-5.296875 c 1.96875,-0.28125 3.554688,-0.941406 4.75,-1.984375 1.199219,-1.039062 1.835938,-2.3125 1.90625,-3.8125 0.054688,-0.988281 -0.1875,-1.734375 -0.71875,-2.234375 -0.539062,-0.5 -1.148438,-0.765625 -1.828125,-0.796875 -1.007813,-0.05078 -1.882813,0.34375 -2.625,1.1875 -0.738281,0.84375 -1.546875,2.070312 -2.421875,3.671875 -1.1875,2.148437 -2.46875,3.757813 -3.84375,4.828125 -1.375,1.0625 -3.003906,1.542969 -4.890625,1.4375 -1.375,-0.0625 -2.554687,-0.460938 -3.546875,-1.203125 -0.988281,-0.75 -1.722656,-1.734375 -2.203125,-2.953125 -0.476563,-1.226562 -0.679687,-2.582031 -0.609375,-4.0625 0.04297,-0.769531 0.164062,-1.601562 0.359375,-2.5 0.199219,-0.90625 0.464844,-1.617188 0.796875,-2.140625 l -0.765625,-3.046875 c 0.75,-0.382812 1.773437,-0.597656 3.0625,-0.640625 1.28125,-0.05078 2.75,-0.03516 4.40625,0.04687 l 0.53125,0.01563 -0.140625,2.90625 c -3.46875,0.6875 -5.257812,2.265625 -5.375,4.734375 -0.05078,0.9375 0.179688,1.65625 0.6875,2.15625 0.5,0.492188 1.1875,0.757812 2.0625,0.796875 0.6875,0.03125 1.304688,-0.125 1.84375,-0.46875 0.53125,-0.351563 0.996094,-0.804687 1.390625,-1.359375 0.398437,-0.5625 0.851563,-1.3125 1.359375,-2.25 0.804688,-1.4375 1.546875,-2.640625 2.234375,-3.609375 0.6875,-0.96875 1.574219,-1.785156 2.65625,-2.453125 1.085937,-0.675781 2.339844,-0.976562 3.765625,-0.90625 1.3125,0.0625 2.492188,0.449219 3.53125,1.15625 1.03125,0.710938 1.835938,1.710938 2.40625,3 0.570312,1.292969 0.816406,2.773438 0.734375,4.4375 -0.105469,1.90625 -0.605469,3.773438 -1.5,5.59375 L 0.6875,-2.96875 c -0.925781,0.398438 -2.335938,0.714844 -4.234375,0.953125 -1.90625,0.230469 -3.585937,0.308594 -5.046875,0.234375 z m 0,0"
           id="path75" />
      </g>
    </g>
  </g>
  <g
     fill="#2a6956"
     fill-opacity="1"
     id="g89"
     transform="translate(-86.061521,-86.492941)">
    <g
       transform="translate(111.08323,176.20526)"
       id="g87">
      <g
         id="g85">
        <path
           d="m -20.75,-17.4375 c 1.03125,-3.46875 2.402344,-5.753906 4.109375,-6.859375 1.710937,-1.113281 3.84375,-1.285156 6.40625,-0.515625 1.511719,0.449219 2.75,1.21875 3.71875,2.3125 0.960937,1.085938 1.554687,2.484375 1.78125,4.203125 0.21875,1.710937 0.00781,3.65625 -0.640625,5.84375 l -0.421875,1.421875 2.96875,0.890625 c 0.898437,0.261719 1.605469,0.355469 2.125,0.28125 0.511719,-0.070313 0.921875,-0.332031 1.234375,-0.78125 0.320312,-0.445313 0.640625,-1.191406 0.953125,-2.234375 0.394531,0.117188 0.765625,0.296875 1.109375,0.546875 0.34375,0.25 0.617188,0.53125 0.828125,0.84375 L 0.5,-1.65625 c -0.34375,0.167969 -0.726562,0.261719 -1.15625,0.28125 -0.425781,0.011719 -0.835938,-0.039062 -1.234375,-0.15625 0.230469,-0.75 0.261719,-1.328125 0.09375,-1.734375 -0.164063,-0.414063 -0.550781,-0.710937 -1.15625,-0.890625 L -18.84375,-8.890625 c -0.632812,-0.1875 -1.125,-0.148437 -1.46875,0.109375 -0.351562,0.25 -0.644531,0.75 -0.875,1.5 -0.769531,-0.226562 -1.410156,-0.679688 -1.921875,-1.359375 0.449219,-1.507813 1,-3.578125 1.65625,-6.203125 0.34375,-1.320312 0.578125,-2.1875 0.703125,-2.59375 z m 8.65625,-1.53125 c -1.4375,-0.425781 -2.703125,-0.441406 -3.796875,-0.04687 -1.101563,0.398437 -1.882813,1.367187 -2.34375,2.90625 -0.144531,0.5 -0.226563,0.933594 -0.25,1.296875 l 9.90625,2.953125 c 0.117187,-0.1875 0.230469,-0.476563 0.34375,-0.875 0.554687,-1.863281 0.429687,-3.253906 -0.375,-4.171875 -0.8125,-0.925781 -1.972656,-1.613281 -3.484375,-2.0625 z m 0,0"
           id="path83" />
      </g>
    </g>
  </g>
  <g
     fill="#2a6956"
     fill-opacity="1"
     id="g97"
     transform="translate(-86.061521,-86.492941)">
    <g
       transform="translate(115.83623,158.43781)"
       id="g95">
      <g
         id="g93">
        <path
           d="m 6.484375,-9.84375 c -1.167969,1.929688 -2.625,3.324219 -4.375,4.1875 -1.742187,0.855469 -3.65625,1.15625 -5.75,0.90625 -2.101563,-0.25 -4.238281,-1.03125 -6.40625,-2.34375 -2.269531,-1.375 -3.992187,-2.9375 -5.171875,-4.6875 -1.175781,-1.757812 -1.773438,-3.597656 -1.796875,-5.515625 -0.01953,-1.925781 0.539063,-3.828125 1.671875,-5.703125 1.167969,-1.914062 2.632812,-3.304688 4.390625,-4.171875 1.75,-0.863281 3.679687,-1.175781 5.78125,-0.9375 2.09375,0.230469 4.234375,1.007813 6.421875,2.328125 2.25,1.355469 3.957031,2.917969 5.125,4.6875 1.175781,1.761719 1.769531,3.609375 1.78125,5.546875 0.019531,1.929687 -0.539062,3.828125 -1.671875,5.703125 z M 4.28125,-11.171875 c 0.664062,-1.101563 0.578125,-2.382813 -0.265625,-3.84375 -0.84375,-1.46875 -2.9375,-3.210937 -6.28125,-5.234375 -3.175781,-1.914062 -5.59375,-2.929688 -7.25,-3.046875 -1.65625,-0.125 -2.835937,0.398437 -3.546875,1.5625 -0.664062,1.105469 -0.578125,2.390625 0.265625,3.859375 0.84375,1.460938 2.921875,3.1875 6.234375,5.1875 3.1875,1.929688 5.617188,2.949219 7.28125,3.0625 1.675781,0.117188 2.863281,-0.398438 3.5625,-1.546875 z m 0,0"
           id="path91" />
      </g>
    </g>
  </g>
  <g
     fill="#2a6956"
     fill-opacity="1"
     id="g105"
     transform="translate(-86.061521,-86.492941)">
    <g
       transform="translate(126.19341,140.59748)"
       id="g103">
      <g
         id="g101">
        <path
           d="m 11.15625,-18.1875 c 0.800781,0.480469 1.5,0.734375 2.09375,0.765625 0.601562,0.02344 1.175781,-0.15625 1.71875,-0.53125 l 1.21875,1.28125 c 0.125,0.90625 -0.355469,1.882813 -1.4375,2.921875 -1.011719,0.96875 -1.976562,1.570312 -2.890625,1.796875 -0.90625,0.21875 -1.765625,0.1875 -2.578125,-0.09375 -0.8125,-0.289063 -1.773438,-0.773437 -2.875,-1.453125 -1.210938,-0.757812 -2.277344,-1.332031 -3.203125,-1.71875 -0.917969,-0.382812 -1.679687,-0.429688 -2.28125,-0.140625 L -0.765625,-13.75 3.6875,-9.09375 c 0.414062,0.4375 0.890625,0.609375 1.421875,0.515625 0.53125,-0.09375 1.0625,-0.394531 1.59375,-0.90625 0.582031,0.617187 0.90625,1.335937 0.96875,2.15625 L 1.28125,-1.21875 c -0.855469,-0.101562 -1.5625,-0.453125 -2.125,-1.046875 0.585938,-0.550781 0.90625,-1.054687 0.96875,-1.515625 0.070312,-0.457031 -0.1171875,-0.914062 -0.5625,-1.375 l -11.453125,-11.984375 c -0.4375,-0.457031 -0.882813,-0.65625 -1.34375,-0.59375 -0.46875,0.0625 -0.988281,0.367187 -1.5625,0.90625 -0.644531,-0.675781 -0.988281,-1.367187 -1.03125,-2.078125 1.125,-1.070312 2.351563,-2.3125 3.671875,-3.71875 1.15625,-1.238281 2.085938,-2.191406 2.78125,-2.859375 4.855469,-4.644531 8.851562,-5.328125 11.984375,-2.046875 2.382813,2.5 2.515625,5.292969 0.390625,8.375 0.976562,-0.507812 2.21875,-0.675781 3.71875,-0.5 1.5,0.167969 2.976562,0.65625 4.4375,1.46875 z m -12.484375,1.59375 c 1.023437,-0.96875 1.515625,-2.046875 1.484375,-3.234375 -0.03125,-1.1875 -0.546875,-2.304687 -1.546875,-3.359375 -1.039063,-1.09375 -2.066406,-1.664062 -3.078125,-1.71875 -1.019531,-0.0625 -2.078125,0.421875 -3.171875,1.453125 -0.570313,0.5625 -0.953125,1 -1.140625,1.3125 l 6.28125,6.5625 c 0.34375,-0.25 0.734375,-0.585937 1.171875,-1.015625 z m 0,0"
           id="path99" />
      </g>
    </g>
  </g>
  <g
     fill="#2a6956"
     fill-opacity="1"
     id="g113"
     transform="translate(-86.061521,-86.492941)">
    <g
       transform="translate(140.50156,126.44631)"
       id="g111">
      <g
         id="g109">
        <path
           d="m 6.28125,-32.0625 c 0.738281,0.53125 1.722656,1.695312 2.953125,3.484375 1.226563,1.78125 2.179687,3.28125 2.859375,4.5 -0.21875,0.242187 -0.59375,0.554687 -1.125,0.9375 -0.53125,0.375 -1.023438,0.6875 -1.46875,0.9375 -1.042969,-1.582031 -1.949219,-2.738281 -2.71875,-3.46875 -0.773438,-0.726563 -1.484375,-1.125 -2.140625,-1.1875 -0.648437,-0.07031 -1.34375,0.101563 -2.09375,0.515625 l -0.53125,0.296875 8.53125,15.46875 c 0.320313,0.574219 0.820313,0.851563 1.5,0.828125 0.6875,-0.03125 1.585937,-0.351562 2.703125,-0.96875 0.207031,0.367188 0.34375,0.757812 0.40625,1.171875 0.07031,0.417969 0.0625,0.8125 -0.03125,1.1875 L 4.640625,-2.5625 c -0.34375,-0.132812 -0.679687,-0.34375 -1,-0.625 -0.3125,-0.28125 -0.574219,-0.601562 -0.78125,-0.96875 2.320313,-1.28125 3.175781,-2.476562 2.5625,-3.59375 l -8.53125,-15.46875 -0.6875,0.375 c -2.15625,1.199219 -2.273437,3.921875 -0.359375,8.171875 -1.476562,0.742187 -2.460938,1.140625 -2.953125,1.203125 -0.675781,-1.21875 -1.441406,-2.820312 -2.296875,-4.8125 -0.851562,-2 -1.320312,-3.445312 -1.40625,-4.34375 0.949219,-0.519531 1.867188,-0.863281 2.75,-1.03125 L 3.96875,-30.3125 c 0.644531,-0.664062 1.414062,-1.25 2.3125,-1.75 z m 0,0"
           id="path107" />
      </g>
    </g>
  </g>
  <g
     fill="#2a6956"
     fill-opacity="1"
     id="g121"
     transform="translate(-86.061521,-86.492941)">
    <g
       transform="translate(157.6316,116.70256)"
       id="g119">
      <g
         id="g117">
        <path
           d="m 2.484375,-9.625 c 0.863281,1.804688 1.972656,3.117188 3.328125,3.9375 1.363281,0.824219 2.773438,1.042969 4.234375,0.65625 0.945313,-0.25 1.578125,-0.707031 1.890625,-1.375 0.3125,-0.664062 0.378906,-1.320312 0.203125,-1.96875 -0.261719,-0.988281 -0.90625,-1.707031 -1.9375,-2.15625 -1.023437,-0.445312 -2.429687,-0.84375 -4.21875,-1.1875 -2.417969,-0.476562 -4.339844,-1.207031 -5.765625,-2.1875 -1.414062,-0.988281 -2.367188,-2.394531 -2.859375,-4.21875 -0.351563,-1.34375 -0.328125,-2.59375 0.078125,-3.75 0.40625,-1.164062 1.125,-2.164062 2.15625,-3 1.019531,-0.832031 2.25,-1.4375 3.6875,-1.8125 0.738281,-0.195312 1.566406,-0.335938 2.484375,-0.421875 0.914063,-0.09375 1.675781,-0.05469 2.28125,0.109375 l 2.65625,-1.65625 c 0.59375,0.605469 1.109375,1.511719 1.546875,2.71875 0.4375,1.210938 0.867188,2.617188 1.296875,4.21875 l 0.140625,0.515625 -2.8125,0.75 c -1.710938,-3.09375 -3.757812,-4.328125 -6.140625,-3.703125 -0.90625,0.242188 -1.523437,0.679688 -1.84375,1.3125 -0.3125,0.625 -0.359375,1.359375 -0.140625,2.203125 0.175781,0.679687 0.515625,1.21875 1.015625,1.625 0.5,0.40625 1.070313,0.714844 1.71875,0.921875 0.65625,0.199219 1.503906,0.40625 2.546875,0.625 1.613281,0.324219 2.984375,0.667969 4.109375,1.03125 1.132813,0.355469 2.1875,0.949219 3.15625,1.78125 0.976563,0.824219 1.648437,1.921875 2.015625,3.296875 0.332031,1.28125 0.316406,2.523437 -0.04687,3.71875 -0.355469,1.199219 -1.0625,2.265625 -2.125,3.203125 C 14.085938,-3.5 12.757812,-2.816406 11.15625,-2.390625 9.3125,-1.910156 7.378906,-1.820312 5.359375,-2.125 l -2.3125,1.875 C 2.378906,-1 1.644531,-2.242188 0.84375,-3.984375 c -0.8046875,-1.75 -1.390625,-3.332031 -1.765625,-4.75 z m 0,0"
           id="path115" />
      </g>
    </g>
  </g>
  <g
     fill="#2a6956"
     fill-opacity="1"
     id="g127"
     transform="translate(-86.061521,-86.492941)">
    <g
       transform="translate(176.1511,112.23191)"
       id="g125">
      <g
         id="g123" />
    </g>
  </g>
  <g
     fill="#2a6956"
     fill-opacity="1"
     id="g135"
     transform="translate(-86.061521,-86.492941)">
    <g
       transform="translate(180.88865,110.94607)"
       id="g133">
      <g
         id="g131">
        <path
           d="M 10.9375,0.96875 C 10.039062,0.914062 8.992188,0.8125 7.796875,0.65625 5.066406,0.375 3.03125,0.191406 1.6875,0.109375 1.21875,-0.554688 1.007812,-1.3125 1.0625,-2.15625 c 0.789062,0.042969 1.359375,-0.0625 1.703125,-0.3125 0.351563,-0.25 0.550781,-0.695312 0.59375,-1.34375 L 4.40625,-20.359375 c 0.039062,-0.65625 -0.101562,-1.128906 -0.421875,-1.421875 -0.3125,-0.289062 -0.867187,-0.457031 -1.65625,-0.5 0.050781,-0.84375 0.351563,-1.566406 0.90625,-2.171875 1.320313,0.08594 3.351563,0.171875 6.09375,0.265625 1.226563,0.03125 2.066406,0.05859 2.515625,0.07813 3.675781,0.242187 6.238281,0.984375 7.6875,2.234375 1.457031,1.25 2.132812,2.695312 2.03125,4.328125 -0.08594,1.355469 -0.5,2.480469 -1.25,3.375 -0.75,0.886719 -1.949219,1.605469 -3.59375,2.15625 2.070312,0.5625 3.523438,1.328125 4.359375,2.296875 0.832031,0.960938 1.191406,2.355469 1.078125,4.1875 -0.304688,4.78125 -4.042969,6.945312 -11.21875,6.5 z m -0.09375,-14.203125 c 3.132812,0.199219 4.789062,-1.09375 4.96875,-3.875 0.07031,-1.300781 -0.230469,-2.335937 -0.90625,-3.109375 C 14.238281,-21 13.1875,-21.429688 11.75,-21.515625 c -0.667969,-0.03906 -1.152344,-0.02344 -1.453125,0.04687 L 9.78125,-13.375 c 0.425781,0.07422 0.78125,0.121094 1.0625,0.140625 z m -0.3125,11.59375 c 3.28125,0.210937 5.007812,-1.101563 5.1875,-3.9375 0.101562,-1.625 -0.230469,-2.851563 -1,-3.6875 -0.773438,-0.84375 -2.078125,-1.320313 -3.921875,-1.4375 l -1.1875,-0.03125 -0.546875,8.90625 c 0.625,0.105469 1.113281,0.167969 1.46875,0.1875 z m 0,0"
           id="path129" />
      </g>
    </g>
  </g>
  <g
     fill="#2a6956"
     fill-opacity="1"
     id="g143"
     transform="translate(-86.061521,-86.492941)">
    <g
       transform="translate(200.37222,111.85619)"
       id="g141">
      <g
         id="g139">
        <path
           d="m 22.390625,-0.578125 c -0.230469,0.726563 -0.835937,1.976563 -1.8125,3.75 C 19.609375,4.953125 18.882812,6.070312 18.40625,6.53125 18.082031,6.332031 17.675781,6.003906 17.1875,5.546875 L 1.65625,0.53125 C 1.351562,-0.3125 1.320312,-1.097656 1.5625,-1.828125 2.3125,-1.585938 2.910156,-1.539062 3.359375,-1.6875 3.804688,-1.84375 4.132812,-2.234375 4.34375,-2.859375 L 9.421875,-18.59375 C 9.617188,-19.195312 9.582031,-19.691406 9.3125,-20.078125 9.050781,-20.460938 8.539062,-20.773438 7.78125,-21.015625 8.019531,-21.753906 8.507812,-22.375 9.25,-22.875 l 13.015625,4.203125 c 0.4375,-0.05078 0.921875,-0.04687 1.453125,0.01563 0.539062,0.05469 1.019531,0.148438 1.4375,0.28125 0.132812,0.761719 0.210938,1.777344 0.234375,3.046875 0.01953,1.273437 -0.05469,2.164063 -0.21875,2.671875 -0.355469,0.15625 -0.902344,0.265625 -1.640625,0.328125 -0.730469,0.05469 -1.339844,0.05469 -1.828125,0 -0.02344,-0.925781 -0.25,-1.789063 -0.6875,-2.59375 -0.4375,-0.8125 -1.070313,-1.351563 -1.890625,-1.625 l -3.78125,-1.21875 -2.28125,7.09375 2.40625,0.78125 c 1.457031,0.46875 2.445312,-0.113281 2.96875,-1.75 1,0.324219 1.832031,0.851563 2.5,1.578125 L 18.921875,-3.82812 C 18.484375,-3.710938 18.007812,-3.664062 17.5,-3.6875 16.988281,-3.71875 16.488281,-3.816406 16,-3.984375 c 0.28125,-0.851563 0.285156,-1.554687 0.01563,-2.109375 -0.261719,-0.5625 -0.71875,-0.945312 -1.375,-1.15625 l -2.4375,-0.78125 -2.546875,7.890625 4.046875,1.3125 c 0.9375,0.300781 1.878906,0.164063 2.828125,-0.40625 0.945312,-0.574219 1.695312,-1.410156 2.25,-2.515625 z m 0,0"
           id="path137" />
      </g>
    </g>
  </g>
  <g
     fill="#2a6956"
     fill-opacity="1"
     id="g151"
     transform="translate(-86.061521,-86.492941)">
    <g
       transform="translate(218.45229,117.26945)"
       id="g149">
      <g
         id="g147">
        <path
           d="m 31.125,-9.953125 c -0.117188,0.898437 -0.664062,2.320313 -1.640625,4.265625 -0.980469,1.9375 -1.839844,3.496094 -2.578125,4.671875 -0.304688,-0.0625 -0.75,-0.234375 -1.34375,-0.515625 -0.59375,-0.289062 -1.105469,-0.570312 -1.53125,-0.84375 0.882812,-1.675781 1.457031,-3.023438 1.71875,-4.046875 0.269531,-1.019531 0.273438,-1.832031 0.01563,-2.4375 -0.25,-0.613281 -0.742187,-1.148437 -1.46875,-1.609375 l -0.5,-0.3125 -9.4375,14.9375 c -0.355469,0.550781 -0.355469,1.117188 0,1.703125 C 14.710938,6.441406 15.425781,7.070312 16.5,7.75 16.28125,8.101562 16,8.410156 15.65625,8.671875 15.320312,8.941406 14.972656,9.125 14.609375,9.21875 L 4.484375,2.828125 C 4.421875,2.460938 4.4375,2.070312 4.53125,1.65625 4.632812,1.238281 4.796875,0.851562 5.015625,0.5 c 2.25,1.414062 3.710937,1.585938 4.390625,0.515625 l 9.4375,-14.9375 -0.65625,-0.40625 c -2.09375,-1.320313 -4.542969,-0.113281 -7.34375,3.625 -1.355469,-0.9375 -2.183594,-1.609375 -2.484375,-2.015625 0.738281,-1.175781 1.773437,-2.625 3.109375,-4.34375 1.34375,-1.71875 2.390625,-2.820312 3.140625,-3.3125 0.914063,0.574219 1.660156,1.203125 2.234375,1.890625 l 11.625,7.34375 c 0.90625,0.242187 1.789062,0.636719 2.65625,1.1875 z m 0,0"
           id="path145" />
      </g>
    </g>
  </g>
  <g
     fill="#2a6956"
     fill-opacity="1"
     id="g159"
     transform="translate(-86.061521,-86.492941)">
    <g
       transform="translate(235.24631,127.43382)"
       id="g157">
      <g
         id="g155">
        <path
           d="M 32.625,-1.765625 C 32.289062,-0.929688 31.40625,0.300781 29.96875,1.9375 28.539062,3.570312 27.320312,4.863281 26.3125,5.8125 26.019531,5.664062 25.625,5.378906 25.125,4.953125 24.625,4.535156 24.195312,4.140625 23.84375,3.765625 25.132812,2.367188 26.035156,1.207031 26.546875,0.28125 27.066406,-0.644531 27.28125,-1.429688 27.1875,-2.078125 27.09375,-2.734375 26.75,-3.375 26.15625,-4 L 25.75,-4.4375 12.84375,7.640625 c -0.480469,0.445313 -0.625,1 -0.4375,1.65625 0.195312,0.65625 0.726562,1.445313 1.59375,2.375 -0.304688,0.28125 -0.648438,0.507813 -1.03125,0.6875 -0.386719,0.175781 -0.773438,0.257813 -1.15625,0.25 l -8.1875,-8.75 C 3.664062,3.503906 3.785156,3.132812 3.984375,2.75 c 0.195313,-0.375 0.445313,-0.703125 0.75,-0.984375 1.8125,1.9375 3.179687,2.46875 4.109375,1.59375 L 21.75,-8.71875 21.21875,-9.28125 c -1.6875,-1.800781 -4.367188,-1.25 -8.03125,1.65625 -1.0625,-1.25 -1.6875,-2.109375 -1.875,-2.578125 1.007812,-0.945313 2.375,-2.082031 4.09375,-3.40625 1.726562,-1.320313 3.019531,-2.128906 3.875,-2.421875 0.738281,0.792969 1.296875,1.59375 1.671875,2.40625 l 9.40625,10.046875 c 0.8125,0.460937 1.566406,1.0625 2.265625,1.8125 z m 0,0"
           id="path153" />
      </g>
    </g>
  </g>
  <g
     fill="#2a6956"
     fill-opacity="1"
     id="g167"
     transform="translate(-86.061521,-86.492941)">
    <g
       transform="translate(248.84114,142.35968)"
       id="g165">
      <g
         id="g163">
        <path
           d="M 0.953125,1.53125 C 1.066406,1.1875 1.253906,0.84375 1.515625,0.5 1.773438,0.164062 2.082031,-0.109375 2.4375,-0.328125 2.851562,0.335938 3.253906,0.738281 3.640625,0.875 4.035156,1.007812 4.507812,0.898438 5.0625,0.546875 l 14.09375,-8.75 c 0.550781,-0.34375 0.859375,-0.71875 0.921875,-1.125 0.0625,-0.414063 -0.117187,-0.957031 -0.53125,-1.625 0.34375,-0.21875 0.722656,-0.367187 1.140625,-0.453125 0.414062,-0.08203 0.804688,-0.09766 1.171875,-0.04687 L 26.375,-4.17187 c -0.117188,0.34375 -0.308594,0.683594 -0.578125,1.015625 -0.261719,0.324219 -0.5625,0.59375 -0.90625,0.8125 C 24.484375,-3 24.082031,-3.390625 23.6875,-3.515625 c -0.398438,-0.132813 -0.871094,-0.03125 -1.421875,0.3125 l -14.09375,8.75 C 7.617188,5.898438 7.3125,6.28125 7.25,6.6875 7.195312,7.09375 7.375,7.625 7.78125,8.28125 7.425781,8.5 7.039062,8.65625 6.625,8.75 6.21875,8.84375 5.832031,8.863281 5.46875,8.8125 Z m 0,0"
           id="path161" />
      </g>
    </g>
  </g>
  <g
     fill="#2a6956"
     fill-opacity="1"
     id="g175"
     transform="translate(-86.061521,-86.492941)">
    <g
       transform="translate(254.83643,150.17219)"
       id="g173">
      <g
         id="g171">
        <path
           d="M 6.265625,5.640625 C 5.140625,6.035156 4.863281,7.039062 5.4375,8.65625 4.65625,8.9375 3.867188,8.929688 3.078125,8.640625 L 0.609375,1.71875 C 1.035156,1.03125 1.648438,0.539062 2.453125,0.25 c 0.269531,0.769531 0.601563,1.296875 1,1.578125 0.40625,0.28125 0.90625,0.316406 1.5,0.109375 l 15.625,-5.5625 c 1.125,-0.40625 1.398437,-1.410156 0.828125,-3.015625 0.382812,-0.132813 0.785156,-0.203125 1.203125,-0.203125 0.414063,0 0.796875,0.0625 1.140625,0.1875 l 1.65625,4.625 c 0.226562,0.648438 0.207031,1.375 -0.0625,2.1875 -0.273438,0.8125 -0.746094,1.664062 -1.421875,2.5625 l -9.25,11.78125 10.96875,-3.90625 c 0.59375,-0.21875 0.953125,-0.574219 1.078125,-1.0625 0.125,-0.492188 0.04687,-1.125 -0.234375,-1.90625 0.40625,-0.136719 0.8125,-0.203125 1.21875,-0.203125 0.40625,0.00781 0.789063,0.085937 1.15625,0.234375 L 31.375,14.734375 c -0.1875,0.34375 -0.445312,0.644531 -0.765625,0.90625 -0.324219,0.257813 -0.679687,0.457031 -1.0625,0.59375 -0.261719,-0.75 -0.59375,-1.273437 -1,-1.5625 -0.40625,-0.292969 -0.90625,-0.328125 -1.5,-0.109375 L 7.4375,21.546875 6.96875,20.21875 C 6.582031,19.125 6.4375,18.269531 6.53125,17.65625 6.632812,17.050781 6.941406,16.394531 7.453125,15.6875 l 10.8125,-14.328125 z m 0,0"
           id="path169" />
      </g>
    </g>
  </g>
  <g
     fill="#2a6956"
     fill-opacity="1"
     id="g183"
     transform="translate(-86.061521,-86.492941)">
    <g
       transform="translate(262.62544,171.19692)"
       id="g181">
      <g
         id="g179">
        <path
           d="M 0.34375,13.046875 C 0.1875,10.585938 0.578125,8.40625 1.515625,6.5 2.460938,4.601562 3.84375,3.101562 5.65625,2 7.46875,0.894531 9.578125,0.265625 11.984375,0.109375 c 2.820313,-0.1875 5.238281,0.140625 7.25,0.984375 2.007813,0.851562 3.5625,2.117188 4.65625,3.796875 1.09375,1.675781 1.710937,3.648437 1.859375,5.921875 0.101562,1.476562 -0.05859,2.914062 -0.484375,4.3125 0.175781,0.34375 0.367187,0.835938 0.578125,1.484375 0.207031,0.65625 0.335938,1.171875 0.390625,1.546875 -1.699219,0.800781 -4.328125,1.316406 -7.890625,1.546875 L 18.125,16.296875 c 1.476562,-0.34375 2.597656,-1.007813 3.359375,-1.984375 0.769531,-0.980469 1.113281,-2.117188 1.03125,-3.40625 -0.105469,-1.542969 -0.851563,-2.710938 -2.234375,-3.5 -1.375,-0.792969 -3.699219,-1.085938 -6.96875,-0.875 -3.617188,0.226562 -6.148438,0.828125 -7.59375,1.796875 -1.4375,0.96875 -2.101562,2.335937 -1.984375,4.109375 0.039063,0.65625 0.144531,1.203125 0.3125,1.640625 0.175781,0.4375 0.4375,0.800781 0.78125,1.09375 l 4.015625,-0.25 c 0.613281,-0.04297 1.035156,-0.339844 1.265625,-0.890625 0.238281,-0.554688 0.320313,-1.390625 0.25,-2.515625 0.425781,-0.02344 0.921875,0.03125 1.484375,0.15625 0.570312,0.125 1,0.296875 1.28125,0.515625 l 0.484375,7.59375 c 0.0625,0.914062 -0.167969,1.566406 -0.6875,1.953125 -0.511719,0.394531 -1.015625,0.609375 -1.515625,0.640625 -0.230469,0.0078 -0.445312,-0.03125 -0.640625,-0.125 -0.05469,-0.84375 -0.1875,-1.5 -0.40625,-1.96875 l -4.0625,0.265625 c -0.75,0.03906 -1.261719,0.203125 -1.53125,0.484375 -0.15625,0.175781 -0.367187,0.273438 -0.625,0.296875 -0.429687,0.01953 -0.929687,-0.339844 -1.5,-1.078125 -0.5625,-0.742188 -1.0625,-1.75 -1.5,-3.03125 C 0.703125,15.945312 0.4375,14.554688 0.34375,13.046875 Z m 0,0"
           id="path177" />
      </g>
    </g>
  </g>
  <g
     fill="#2a6956"
     fill-opacity="1"
     id="g189"
     transform="translate(-86.061521,-86.492941)">
    <g
       transform="translate(263.46477,192.56132)"
       id="g187">
      <g
         id="g185" />
    </g>
  </g>
  <g
     fill="#2a6956"
     fill-opacity="1"
     id="g197"
     transform="translate(-86.061521,-86.492941)">
    <g
       transform="translate(262.96481,198.19145)"
       id="g195">
      <g
         id="g193">
        <path
           d="M 9.921875,10.1875 C 8.910156,9.988281 8.148438,9.503906 7.640625,8.734375 7.128906,7.960938 6.976562,7.0625 7.1875,6.03125 7.394531,4.957031 7.878906,4.160156 8.640625,3.640625 9.410156,3.128906 10.300781,2.972656 11.3125,3.171875 c 1.039062,0.207031 1.804688,0.691406 2.296875,1.453125 0.488281,0.769531 0.628906,1.691406 0.421875,2.765625 -0.210938,1.03125 -0.6875,1.804687 -1.4375,2.328125 -0.742188,0.519531 -1.632812,0.675781 -2.671875,0.46875 z m 0,0"
           id="path191" />
      </g>
    </g>
  </g>
  <g
     fill="#2a6956"
     fill-opacity="1"
     id="g205"
     transform="translate(-86.061521,-86.492941)">
    <g
       transform="translate(104.15691,238.72112)"
       id="g203">
      <g
         id="g201">
        <path
           d="M 19.21875,-1.015625 C 20,0.273438 20.34375,1.578125 20.25,2.890625 20.164062,4.210938 19.71875,5.441406 18.90625,6.578125 18.101562,7.710938 17.035156,8.6875 15.703125,9.5 c -1.355469,0.820312 -2.726563,1.332031 -4.109375,1.53125 -1.375,0.195312 -2.667969,0.03125 -3.875,-0.5 C 6.519531,10 5.53125,9.085938 4.75,7.796875 L 1.65625,2.703125 C 1.476562,2.429688 1.425781,2.140625 1.5,1.828125 1.582031,1.515625 1.757812,1.273438 2.03125,1.109375 L 14.515625,-6.5 c 0.269531,-0.164062 0.5625,-0.207031 0.875,-0.125 0.3125,0.074219 0.554687,0.246094 0.734375,0.515625 z M 6.5,6.421875 c 0.863281,1.40625 2.007812,2.15625 3.4375,2.25 1.425781,0.09375 2.921875,-0.335937 4.484375,-1.28125 C 15.960938,6.453125 17.019531,5.320312 17.59375,4 18.164062,2.675781 18.023438,1.320312 17.171875,-0.0625 L 14.859375,-3.875 4.1875,2.609375 Z m 0,0"
           id="path199" />
      </g>
    </g>
  </g>
  <g
     fill="#2a6956"
     fill-opacity="1"
     id="g213"
     transform="translate(-86.061521,-86.492941)">
    <g
       transform="translate(114.29419,254.8729)"
       id="g211">
      <g
         id="g209">
        <path
           d="m 11.28125,10.03125 c -0.08594,0.132812 -0.183594,0.257812 -0.296875,0.375 -0.242187,0.21875 -0.511719,0.316406 -0.8125,0.296875 C 9.867188,10.679688 9.617188,10.5625 9.421875,10.34375 9.265625,10.1875 9.175781,9.988281 9.15625,9.75 9.132812,9.519531 9.175781,9.285156 9.28125,9.046875 l 1.59375,-3.5 -5.0625,-5.5 L 2.1875,1.375 C 1.957031,1.476562 1.726562,1.503906 1.5,1.453125 1.28125,1.398438 1.09375,1.289062 0.9375,1.125 0.707031,0.882812 0.597656,0.640625 0.609375,0.390625 c 0.007813,-0.25 0.128906,-0.4765625 0.359375,-0.6875 0.050781,-0.039063 0.160156,-0.117187 0.328125,-0.234375 l 15.15625,-5.578125 c 0.28125,-0.082031 0.535156,-0.097656 0.765625,-0.046875 0.238281,0.054688 0.4375,0.183594 0.59375,0.390625 0.15625,0.179687 0.25,0.382813 0.28125,0.609375 0.03125,0.230469 -0.01172,0.460938 -0.125,0.6875 z M 8.0625,-0.78125 11.875,3.359375 14.9375,-3.3125 Z m 0,0"
           id="path207" />
      </g>
    </g>
  </g>
  <g
     fill="#2a6956"
     fill-opacity="1"
     id="g221"
     transform="translate(-86.061521,-86.492941)">
    <g
       transform="translate(126.01887,267.3578)"
       id="g219">
      <g
         id="g217">
        <path
           d="m 20.546875,-5.75 c 0.28125,0.210938 0.445313,0.464844 0.5,0.765625 0.05078,0.292969 -0.02734,0.574219 -0.234375,0.84375 -0.199219,0.273437 -0.445312,0.417969 -0.734375,0.4375 -0.28125,0.023437 -0.5625,-0.070313 -0.84375,-0.28125 L 15.796875,-6.5625 7.625,4.296875 c -0.1875,0.257813 -0.445312,0.40625 -0.765625,0.4375 -0.3125,0.039063 -0.617187,-0.042969 -0.90625,-0.25 -0.28125,-0.21875 -0.449219,-0.492187 -0.5,-0.8125 C 5.398438,3.359375 5.46875,3.070312 5.65625,2.8125 L 13.828125,-8.046875 10.40625,-10.625 c -0.273438,-0.195312 -0.4375,-0.4375 -0.5,-0.71875 -0.054688,-0.289062 0.023438,-0.578125 0.234375,-0.859375 0.195313,-0.25 0.441406,-0.390625 0.734375,-0.421875 0.289062,-0.03906 0.570312,0.03906 0.84375,0.234375 z m 0,0"
           id="path215" />
      </g>
    </g>
  </g>
  <g
     fill="#2a6956"
     fill-opacity="1"
     id="g229"
     transform="translate(-86.061521,-86.492941)">
    <g
       transform="translate(139.30213,277.19099)"
       id="g227">
      <g
         id="g225">
        <path
           d="m 14.109375,5.34375 c -0.01172,0.164062 -0.05469,0.316406 -0.125,0.453125 -0.148437,0.289063 -0.367187,0.476563 -0.65625,0.5625 C 13.035156,6.453125 12.757812,6.429688 12.5,6.296875 12.300781,6.203125 12.148438,6.050781 12.046875,5.84375 11.941406,5.632812 11.890625,5.398438 11.890625,5.140625 L 12.125,1.296875 5.4375,-2.03125 2.515625,0.515625 C 2.347656,0.691406 2.148438,0.796875 1.921875,0.828125 1.703125,0.859375 1.488281,0.820312 1.28125,0.71875 0.976562,0.570312 0.785156,0.378906 0.703125,0.140625 c -0.074219,-0.2382812 -0.042969,-0.5 0.09375,-0.78125 0.03125,-0.050781 0.101563,-0.15625 0.21875,-0.3125 l 12.1875,-10.625 c 0.21875,-0.175781 0.441406,-0.28125 0.671875,-0.3125 0.238281,-0.03906 0.472656,0.01172 0.703125,0.15625 0.207031,0.105469 0.367187,0.261719 0.484375,0.46875 0.113281,0.199219 0.15625,0.421875 0.125,0.671875 z M 7.25,-3.59375 l 5.03125,2.5 0.5,-7.328125 z m 0,0"
           id="path223" />
      </g>
    </g>
  </g>
  <g
     fill="#2a6956"
     fill-opacity="1"
     id="g235"
     transform="translate(-86.061521,-86.492941)">
    <g
       transform="translate(154.38529,284.28667)"
       id="g233">
      <g
         id="g231" />
    </g>
  </g>
  <g
     fill="#2a6956"
     fill-opacity="1"
     id="g243"
     transform="translate(-86.061521,-86.492941)">
    <g
       transform="translate(161.76608,287.03042)"
       id="g241">
      <g
         id="g239">
        <path
           d="m 16.921875,-12.875 c 0.332031,0.273438 0.457031,0.621094 0.375,1.046875 -0.0625,0.292969 -0.210937,0.53125 -0.4375,0.71875 -0.242187,0.230469 -0.53125,0.308594 -0.875,0.234375 -0.210937,-0.03906 -0.40625,-0.140625 -0.59375,-0.296875 -0.867187,-0.738281 -1.871094,-1.222656 -3.015625,-1.453125 -1.1875,-0.238281 -2.289062,-0.1875 -3.296875,0.15625 -1.011719,0.335938 -1.867187,0.921875 -2.5625,1.765625 -0.6875,0.84375 -1.152344,1.871094 -1.390625,3.078125 -0.261719,1.324219 -0.230469,2.511719 0.09375,3.5625 0.332031,1.042969 0.90625,1.90625 1.71875,2.59375 0.820312,0.679688 1.800781,1.132812 2.9375,1.359375 1.175781,0.226563 2.296875,0.15625 3.359375,-0.21875 0.207031,-0.050781 0.421875,-0.054687 0.640625,-0.015625 0.351562,0.074219 0.601562,0.2617188 0.75,0.5625 0.144531,0.269531 0.191406,0.539062 0.140625,0.8125 -0.03125,0.1875 -0.121094,0.351562 -0.265625,0.5 -0.136719,0.144531 -0.296875,0.25 -0.484375,0.3125 -0.6875,0.21875 -1.4375,0.351562 -2.25,0.40625 C 10.960938,2.3125 10.1875,2.269531 9.4375,2.125 7.90625,1.8125 6.5625,1.1875 5.40625,0.25 4.257812,-0.6875 3.429688,-1.878906 2.921875,-3.328125 2.421875,-4.773438 2.34375,-6.367188 2.6875,-8.109375 3,-9.703125 3.648438,-11.066406 4.640625,-12.203125 c 0.988281,-1.144531 2.195313,-1.957031 3.625,-2.4375 1.4375,-0.476563 2.953125,-0.554687 4.546875,-0.234375 1.53125,0.304688 2.898438,0.96875 4.109375,2 z m 0,0"
           id="path237" />
      </g>
    </g>
  </g>
  <g
     fill="#2a6956"
     fill-opacity="1"
     id="g251"
     transform="translate(-86.061521,-86.492941)">
    <g
       transform="translate(178.67672,290.36076)"
       id="g249">
      <g
         id="g247">
        <path
           d="m 17.328125,-8.578125 c 0.0078,1.636719 -0.335937,3.117187 -1.03125,4.4375 -0.6875,1.3125 -1.652344,2.359375 -2.890625,3.140625 -1.230469,0.773438 -2.625,1.160156 -4.1875,1.171875 C 7.65625,0.179688 6.25,-0.1875 5,-0.9375 3.75,-1.695312 2.769531,-2.734375 2.0625,-4.046875 1.351562,-5.359375 0.992188,-6.832031 0.984375,-8.46875 0.972656,-10.09375 1.3125,-11.566406 2,-12.890625 c 0.695312,-1.332031 1.664062,-2.382813 2.90625,-3.15625 1.238281,-0.78125 2.640625,-1.175781 4.203125,-1.1875 1.5625,-0.0078 2.960937,0.367187 4.203125,1.125 1.25,0.75 2.226562,1.789063 2.9375,3.109375 0.707031,1.324219 1.066406,2.796875 1.078125,4.421875 z M 14.84375,-8.5625 c 0,-1.207031 -0.25,-2.296875 -0.75,-3.265625 -0.492188,-0.976563 -1.167969,-1.742187 -2.03125,-2.296875 -0.867188,-0.550781 -1.84375,-0.820312 -2.9375,-0.8125 -1.09375,0.01172 -2.074219,0.292969 -2.9375,0.84375 -0.867188,0.554688 -1.539062,1.320312 -2.015625,2.296875 C 3.703125,-10.816406 3.46875,-9.71875 3.46875,-8.5 c 0.00781,1.210938 0.257812,2.304688 0.75,3.28125 0.488281,0.980469 1.164062,1.746094 2.03125,2.296875 0.875,0.542969 1.859375,0.808594 2.953125,0.796875 1.09375,-0.00781 2.066406,-0.289062 2.921875,-0.84375 0.863281,-0.5625 1.535156,-1.332031 2.015625,-2.3125 0.476563,-0.976562 0.710937,-2.070312 0.703125,-3.28125 z m 0,0"
           id="path245" />
      </g>
    </g>
  </g>
  <g
     fill="#2a6956"
     fill-opacity="1"
     id="g259"
     transform="translate(-86.061521,-86.492941)">
    <g
       transform="translate(199.1534,290.07236)"
       id="g257">
      <g
         id="g255">
        <path
           d="m 12.28125,-20.390625 c 0.3125,-0.07031 0.601562,-0.02344 0.875,0.140625 0.269531,0.15625 0.441406,0.390625 0.515625,0.703125 l 3.4375,14.234375 c 0.07031,0.3125 0.02344,0.605469 -0.140625,0.875 -0.15625,0.273438 -0.40625,0.449219 -0.75,0.53125 C 15.875,-3.820312 15.566406,-3.859375 15.296875,-4.015625 15.023438,-4.179688 14.851562,-4.425781 14.78125,-4.75 L 12.15625,-15.640625 9.25,-7.625 C 9.1875,-7.457031 9.082031,-7.304688 8.9375,-7.171875 8.789062,-7.035156 8.632812,-6.957031 8.46875,-6.9375 8.3125,-6.882812 8.140625,-6.882812 7.953125,-6.9375 7.765625,-6.988281 7.59375,-7.078125 7.4375,-7.203125 L 1.15625,-13.21875 3.828125,-2.109375 c 0.070313,0.324219 0.035156,0.617187 -0.109375,0.875 C 3.582031,-0.972656 3.347656,-0.800781 3.015625,-0.71875 2.691406,-0.644531 2.40625,-0.691406 2.15625,-0.859375 1.90625,-1.023438 1.742188,-1.269531 1.671875,-1.59375 l -3.4375,-14.234375 c -0.0625,-0.289063 -0.00781,-0.578125 0.15625,-0.859375 0.167969,-0.28125 0.414063,-0.460938 0.734375,-0.546875 0.199219,-0.03906 0.402344,-0.03516 0.609375,0.01563 0.1992188,0.04297 0.367187,0.132812 0.515625,0.265625 l 7.59375,7.109375 3.625,-9.8125 c 0.164062,-0.40625 0.4375,-0.648438 0.8125,-0.734375 z m 0,0"
           id="path253" />
      </g>
    </g>
  </g>
  <g
     fill="#2a6956"
     fill-opacity="1"
     id="g267"
     transform="translate(-86.061521,-86.492941)">
    <g
       transform="translate(220.11461,284.55096)"
       id="g265">
      <g
         id="g263">
        <path
           d="m 0.6875,-19.078125 c 0.769531,-0.363281 1.582031,-0.488281 2.4375,-0.375 0.851562,0.117187 1.640625,0.4375 2.359375,0.96875 0.726563,0.523437 1.296875,1.214844 1.703125,2.078125 0.40625,0.867188 0.585938,1.757812 0.546875,2.671875 -0.042969,0.90625 -0.292969,1.726563 -0.75,2.453125 -0.449219,0.730469 -1.058594,1.277344 -1.828125,1.640625 L 1.046875,-7.6875 3.328125,-2.859375 C 3.472656,-2.566406 3.5,-2.273438 3.40625,-1.984375 3.3125,-1.691406 3.117188,-1.476562 2.828125,-1.34375 2.515625,-1.1875 2.21875,-1.164062 1.9375,-1.28125 1.664062,-1.394531 1.457031,-1.601562 1.3125,-1.90625 l -6.25,-13.203125 C -5.070312,-15.398438 -5.085938,-15.695312 -4.984375,-16 c 0.105469,-0.3125 0.304687,-0.535156 0.59375,-0.671875 z M 4.21875,-11.625 c 0.394531,-0.1875 0.695312,-0.484375 0.90625,-0.890625 0.207031,-0.414063 0.3125,-0.882813 0.3125,-1.40625 0,-0.519531 -0.117188,-1.019531 -0.34375,-1.5 C 4.738281,-16.160156 4.222656,-16.6875 3.546875,-17 c -0.679687,-0.3125 -1.3125,-0.328125 -1.90625,-0.04687 l -4.109375,1.953125 2.578125,5.421875 z m 0,0"
           id="path261" />
      </g>
    </g>
  </g>
  <g
     fill="#2a6956"
     fill-opacity="1"
     id="g275"
     transform="translate(-86.061521,-86.492941)">
    <g
       transform="translate(234.06149,277.59201)"
       id="g273">
      <g
         id="g271">
        <path
           d="M 3.078125,-3.375 C 3.265625,-3.082031 3.3125,-2.773438 3.21875,-2.453125 3.132812,-2.128906 2.957031,-1.882812 2.6875,-1.71875 2.382812,-1.519531 2.082031,-1.457031 1.78125,-1.53125 1.476562,-1.601562 1.234375,-1.785156 1.046875,-2.078125 L -6.78125,-14.375 c -0.175781,-0.269531 -0.226562,-0.5625 -0.15625,-0.875 0.0625,-0.3125 0.246094,-0.566406 0.546875,-0.765625 0.273437,-0.164063 0.570313,-0.21875 0.890625,-0.15625 0.324219,0.0625 0.574219,0.230469 0.75,0.5 z m 0,0"
           id="path269" />
      </g>
    </g>
  </g>
  <g
     fill="#2a6956"
     fill-opacity="1"
     id="g283"
     transform="translate(-86.061521,-86.492941)">
    <g
       transform="translate(240.41535,273.70708)"
       id="g281">
      <g
         id="g279">
        <path
           d="m 7.359375,-8.921875 c 0.257813,-0.21875 0.535156,-0.3125 0.828125,-0.28125 0.300781,0.023437 0.5625,0.164063 0.78125,0.421875 0.207031,0.25 0.289062,0.527344 0.25,0.828125 C 9.1875,-7.660156 9.039062,-7.40625 8.78125,-7.1875 L 2.453125,-2.015625 C 2.191406,-1.796875 1.90625,-1.703125 1.59375,-1.734375 1.28125,-1.765625 1.019531,-1.90625 0.8125,-2.15625 l -9.25,-11.3125 c -0.207031,-0.25 -0.289062,-0.535156 -0.25,-0.859375 0.03125,-0.320313 0.183594,-0.59375 0.453125,-0.8125 0.25,-0.207031 0.539063,-0.296875 0.859375,-0.265625 0.324219,0.02344 0.589844,0.15625 0.796875,0.40625 l 8.5625,10.46875 z m 0,0"
           id="path277" />
      </g>
    </g>
  </g>
  <g
     fill="#2a6956"
     fill-opacity="1"
     id="g291"
     transform="translate(-86.061521,-86.492941)">
    <g
       transform="translate(251.74975,264.31208)"
       id="g289">
      <g
         id="g287">
        <path
           d="m 5.984375,-10.15625 c 0.226563,-0.257812 0.5,-0.394531 0.8125,-0.40625 0.320313,-0.0078 0.59375,0.08594 0.8125,0.28125 0.25,0.210938 0.375,0.464844 0.375,0.765625 0.00781,0.292969 -0.101563,0.570313 -0.328125,0.828125 L 2.09375,-2.375 C 1.882812,-2.132812 1.617188,-2 1.296875,-1.96875 0.984375,-1.945312 0.703125,-2.046875 0.453125,-2.265625 L -10.5,-11.921875 c -0.238281,-0.21875 -0.367188,-0.488281 -0.390625,-0.8125 -0.01953,-0.320313 0.07422,-0.601563 0.28125,-0.84375 l 5.5625,-6.3125 c 0.230469,-0.257813 0.5,-0.398437 0.8125,-0.421875 0.304687,-0.01953 0.578125,0.07813 0.828125,0.296875 0.242188,0.21875 0.367188,0.480469 0.375,0.78125 0,0.292969 -0.113281,0.570313 -0.34375,0.828125 l -4.734375,5.375 3.703125,3.265625 4.015625,-4.5625 c 0.230469,-0.25 0.4882812,-0.390625 0.78125,-0.421875 0.300781,-0.03125 0.570313,0.0625 0.8125,0.28125 0.25,0.21875 0.375,0.476562 0.375,0.765625 0.00781,0.292969 -0.101563,0.5625 -0.328125,0.8125 l -4.015625,4.5625 L 1.25,-4.78125 Z m 0,0"
           id="path285" />
      </g>
    </g>
  </g>
  <g
     fill="#2a6956"
     fill-opacity="1"
     id="g299"
     transform="translate(-86.061521,-86.492941)">
    <g
       transform="translate(261.90779,252.7546)"
       id="g297">
      <g
         id="g295">
        <path
           d="m 6.03125,-13.765625 c 0.164062,-0.07031 0.347656,-0.109375 0.546875,-0.109375 0.195313,0 0.375,0.04687 0.53125,0.140625 0.28125,0.167969 0.4375,0.386719 0.46875,0.65625 0.03125,0.273437 -0.039063,0.542969 -0.203125,0.8125 -0.15625,0.261719 -0.339844,0.449219 -0.546875,0.5625 C 6.335938,-11.429688 5.75,-11.320312 5.0625,-11.375 c -0.679688,-0.05078 -1.527344,-0.390625 -2.546875,-1.015625 -0.6875,-0.40625 -1.324219,-0.5 -1.90625,-0.28125 -0.5859375,0.210937 -1.078125,0.648437 -1.484375,1.3125 L -3.390625,-7.1875 1.28125,-4.375 c 0.28125,0.167969 0.460938,0.390625 0.546875,0.671875 0.09375,0.28125 0.0625,0.558594 -0.09375,0.828125 -0.1875,0.3125 -0.449219,0.527344 -0.78125,0.640625 -0.335937,0.117187 -0.636719,0.089844 -0.90625,-0.078125 l -12.53125,-7.53125 C -12.753906,-10.007812 -12.925781,-10.25 -13,-10.5625 c -0.08203,-0.3125 -0.03906,-0.609375 0.125,-0.890625 l 3.5,-5.828125 c 0.449219,-0.738281 1.042969,-1.3125 1.78125,-1.71875 0.742188,-0.40625 1.546875,-0.597656 2.421875,-0.578125 0.867187,0.02344 1.699219,0.273437 2.5,0.75 0.773437,0.46875 1.371094,1.117187 1.796875,1.9375 0.417969,0.8125 0.601562,1.636719 0.546875,2.46875 0.5625,-0.332031 1.164063,-0.503906 1.8125,-0.515625 0.644531,-0.01953 1.289063,0.140625 1.9375,0.484375 0.820313,0.417969 1.394531,0.679687 1.71875,0.78125 0.320313,0.105469 0.617187,0.07422 0.890625,-0.09375 z m -8.296875,0.828125 c 0.179687,-0.363281 0.234375,-0.773438 0.171875,-1.234375 -0.0625,-0.457031 -0.242188,-0.910156 -0.546875,-1.359375 -0.300781,-0.445312 -0.71875,-0.828125 -1.25,-1.140625 -0.65625,-0.394531 -1.335937,-0.53125 -2.046875,-0.40625 -0.707031,0.125 -1.234375,0.480469 -1.578125,1.0625 l -2.8125,4.65625 5.21875,3.140625 z m 0,0"
           id="path293" />
      </g>
    </g>
  </g>
  <g
     clip-path="url(#53c44c67c9)"
     id="g303"
     transform="translate(-86.061521,-86.492941)">
    <path
       fill="#b5cdc6"
       d="m 221.69141,209.81641 c 3.16796,-5.67188 4.98046,-12.19532 4.98046,-19.13672 0,-16.4336 -10.12109,-30.54297 -24.45703,-36.4336 v -0.0234 c -0.0195,0 -0.0352,0.004 -0.0547,0.004 -4.58985,-1.8789 -9.60547,-2.92187 -14.86329,-2.92187 -21.71093,0 -39.375,17.66406 -39.375,39.375 0,13.23047 6.56641,24.94922 16.60547,32.09375 0.004,0.008 0.008,0.0156 0.0117,0.0234 l 0.0117,-0.008 c 6.42969,4.56641 14.27734,7.26563 22.74609,7.26563 14.76954,0 27.65625,-8.17578 34.39454,-20.23828 z m -0.82422,-1.08594 c -9.52735,2.45312 -16.89453,-0.57422 -24.01563,-3.51953 -7.40234,-3.0586 -15.05859,-6.22266 -25.03906,-3.25782 -0.0234,0.008 -0.0469,0.0156 -0.0742,0.0234 -0.41797,-0.94531 -0.82422,-1.90625 -1.20312,-2.88672 -0.63672,-1.63281 -1.1875,-3.27343 -1.67969,-4.92187 15.27734,-6.67188 35.70703,-12.94141 54.34375,-16.3086 1.43359,4.00782 2.22265,8.32422 2.22265,12.82032 0,6.52734 -1.65234,12.67578 -4.55468,18.05078 z m 1.8789,-32.0625 c -18.89062,3.43359 -39.04297,9.59375 -54.2539,16.25 -0.8125,-2.91797 -1.40235,-5.83985 -1.77735,-8.7461 0.42188,-0.18359 0.84766,-0.38281 1.28516,-0.60156 6.71875,-3.3789 10.9375,-9.07812 15.01953,-14.58984 5.09375,-6.875 9.90625,-13.36719 18.91797,-13.5 9.47266,3.95703 17.01562,11.6289 20.80859,21.1875 z m -23.5625,-22.20703 c -7.88281,1.25 -12.41015,7.35156 -17.16797,13.77734 -3.99609,5.39063 -8.125,10.96875 -14.57812,14.21875 -0.29688,0.14844 -0.58984,0.28516 -0.88281,0.42188 -1.00782,-9.40235 0.27343,-18.53125 3.85937,-26.3711 5.09375,-2.52734 10.82422,-3.95312 16.88281,-3.95312 4.15235,0 8.14454,0.67578 11.88672,1.90625 z m -30.51953,2.97656 c -3.24609,7.81641 -4.34765,16.76562 -3.30469,25.94922 -3.28125,1.28906 -6.14062,1.49219 -8.51562,0.59765 -2.37109,-0.89062 -4.21875,-2.89843 -5.50781,-5.94921 3.09765,-8.78125 9.32031,-16.09375 17.32812,-20.59766 z m -17.89453,22.33203 c 1.39453,2.68359 3.27734,4.5 5.63281,5.38672 1.11719,0.41797 2.3125,0.62891 3.58985,0.62891 1.70312,0 3.55078,-0.37891 5.52343,-1.125 0.39063,2.91406 0.9961,5.84375 1.81641,8.76562 -6.625,2.96094 -12.23828,6.00391 -16.32031,8.9375 -1.19141,-3.68359 -1.83985,-7.60937 -1.83985,-11.68359 0,-3.79297 0.56641,-7.45313 1.59766,-10.91016 z m 0.66016,23.83203 c 3.95703,-2.89453 9.58593,-5.94531 16.27343,-8.92578 0.49219,1.62891 1.03907,3.25 1.66407,4.86719 0.375,0.96484 0.77343,1.91015 1.1875,2.84765 -3.51172,1.36719 -6.14063,3.86329 -7.47266,7.14063 -1.32812,3.26953 -1.21484,7.02734 0.28125,10.79297 -5.37109,-4.34375 -9.54297,-10.10938 -11.93359,-16.72266 z m 14.0625,18.32422 c -2.2461,-4.14844 -2.69141,-8.37109 -1.25,-11.92578 1.20703,-2.96875 3.61718,-5.22656 6.83984,-6.46875 5.29297,11.39062 13.34766,20.19922 22.67188,24.71484 -2.09766,0.35938 -4.25391,0.5586 -6.45704,0.5586 -8.10546,0 -15.62109,-2.55078 -21.80468,-6.87891 z m 30.33984,5.90234 c -9.68359,-4.12109 -18.10156,-13.00781 -23.5625,-24.70312 9.50391,-2.78906 16.59766,0.14062 24.10547,3.24219 7.02734,2.90234 14.27734,5.89453 23.64062,3.85547 -5.25781,8.76953 -13.9375,15.2539 -24.18359,17.60546 z m 0,0"
       fill-opacity="1"
       fill-rule="nonzero"
       id="path301" />
  </g>
  <path
     stroke-linecap="butt"
     fill="none"
     stroke-linejoin="miter"
     d="m 59.520508,117.3391 -0.476563,-5.18751 c -0.07425,-0.83202 -0.585938,-1.20703 -1.53125,-1.11718 l -5.460936,0.50002 c -2.808597,0.25779 -4.847659,-0.17581 -6.117191,-1.30471 -1.273438,-1.125 -2.015625,-2.84766 -2.226563,-5.16016 L 43.0166,97.550029 c -0.429691,-4.707032 2.125001,-7.316408 7.664064,-7.824219 l 7.796877,-0.714845 c 5.539063,-0.507811 8.527344,1.589846 8.957032,6.296878 l 0.402343,4.394532 -9.964845,0.914065 -0.281278,-3.085939 c -0.07816,-0.835934 -0.585937,-1.207032 -1.53125,-1.121094 l -1.656249,0.152344 c -0.945314,0.08594 -1.378907,0.546874 -1.300783,1.378906 l 0.496094,5.421873 c 0.07815,0.83203 0.585937,1.20703 1.53125,1.1211 l 5.351566,-0.49216 c 2.808594,-0.25781 4.863282,0.14844 6.164063,1.21485 1.304688,1.0664 2.0625,2.73437 2.269531,5.0039 l 0.687488,7.51954 c 0.433635,4.70702 -2.121094,7.3125 -7.660158,7.82031 l -7.742188,0.71094 c -5.578089,0.51168 -8.581996,-1.58598 -9.01559,-6.29301 l -0.398434,-4.375 9.964846,-0.91406 0.28125,3.07031 c 0.07425,0.83203 0.585937,1.20703 1.53125,1.1211 l 1.652344,-0.15235 c 0.945312,-0.0859 1.378907,-0.54687 1.304688,-1.37891 z m 0,0"
     stroke="#12342a"
     stroke-width="2.9299"
     stroke-opacity="1"
     stroke-miterlimit="4"
     id="path305" />
  <path
     stroke-linecap="butt"
     fill="none"
     stroke-linejoin="miter"
     d="m 88.114258,101.19455 -0.191377,-5.941407 c -0.02344,-0.843749 -0.515624,-1.253905 -1.476561,-1.222655 l -4.113281,0.128898 0.269525,8.468744 4.113282,-0.13278 c 0.957029,-0.0274 1.421874,-0.46094 1.398437,-1.30078 z m 0.476569,15.08202 -0.191419,-5.99999 c -0.02734,-0.83594 -0.519531,-1.23828 -1.476562,-1.21094 l -4.113281,0.13278 0.269531,8.50781 4.11328,-0.12889 c 0.95703,-0.0313 1.425781,-0.46485 1.398437,-1.30079 z M 72.30567,87.901584 89.098633,87.370334 c 5.597653,-0.179712 8.472653,2.09375 8.62109,6.820311 l 0.148438,4.687499 c 0.105468,3.308596 -0.738282,5.492186 -2.527344,6.542966 1.074219,0.42188 1.816406,1.09766 2.226562,2.02344 0.410156,0.91797 0.640625,2.17578 0.691406,3.77734 l 0.175741,5.48047 c 0.148409,4.72656 -2.574218,7.17578 -8.171872,7.35156 l -16.79683,0.53125 z m 0,0"
     stroke="#12342a"
     stroke-width="2.9299"
     stroke-opacity="1"
     stroke-miterlimit="4"
     id="path307" />
  <path
     stroke-linecap="butt"
     fill="none"
     stroke-linejoin="miter"
     d="m 103.8213,87.116432 16.85156,0.511747 c 5.59766,0.167974 8.32813,2.617189 8.1836,7.339846 l -0.68753,22.515635 c -0.14066,4.72265 -3.01172,7 -8.61328,6.83203 l -16.84767,-0.5156 z m 14.37109,29.324228 0.63669,-21.023444 c 0.0273,-0.843752 -0.43359,-1.281251 -1.38281,-1.312502 l -3.82032,-0.11718 -0.71873,23.546886 3.82422,0.11718 c 0.94922,0.0312 1.4336,-0.375 1.46094,-1.21093 z m 0,0"
     stroke="#12342a"
     stroke-width="2.9299"
     stroke-opacity="1"
     stroke-miterlimit="4"
     id="path309" />
  <path
     stroke-linecap="butt"
     fill="none"
     stroke-linejoin="miter"
     d="m 158.12208,104.17504 -9.96485,-0.91402 0.53516,-5.851569 c 0.0781,-0.839842 -0.35547,-1.304689 -1.30078,-1.394532 l -1.98829,-0.179672 c -0.95313,-0.08591 -1.46875,0.289063 -1.54687,1.132813 l -1.91794,20.94533 c -0.0742,0.83203 0.36328,1.29297 1.32031,1.3789 l 1.98438,0.18357 c 0.94531,0.0859 1.45703,-0.28907 1.53125,-1.1211 l 0.51949,-5.64063 9.96485,0.91012 -0.58591,6.37891 c -0.42965,4.70704 -3.4336,6.8047 -9.01173,6.29298 l -8.03125,-0.73438 c -5.57813,-0.50779 -8.15235,-3.11719 -7.72266,-7.82422 l 2.05468,-22.4297 c 0.42969,-4.707034 3.4336,-6.804692 9.01173,-6.296879 l 8.03125,0.734375 c 5.57813,0.511691 8.15235,3.121094 7.72266,7.828128 z m 0,0"
     stroke="#12342a"
     stroke-width="2.9299"
     stroke-opacity="1"
     stroke-miterlimit="4"
     id="path311" />
</svg>
